# xmcd CD database file
#
# Track frame offsets:
#	150
#	21345
#	41957
#	62940
#	85479
#	106162
#	126695
#	145752
#	168334
#	189255
#	209912
#	232855
#
# Disc length: 3408 seconds
#
# Revision: 0
# Processed by: cddbd v1.4PL0 Copyright (c) Steve Scherf et al.
# Submitted via: CDex 1.50Beta7
#
DISCID=b30d4e0c
DTITLE=Victor Manuelle - Inconfundible
DYEAR=1997
DGENRE=Salsa
TTITLE0=Si la ves
TTITLE1=Al igual que ayer
TTITLE2=Por ella
TTITLE3=Pero dile
TTITLE4=Cuando tu amor se acabe
TTITLE5=Si por ti fuera
TTITLE6=Como quisiera decirte
TTITLE7=Como duele
TTITLE8=Por ti
TTITLE9=Bella sin alma
TTITLE10=Dile a ella
TTITLE11=He tratado
EXTD=YEAR: 1997
EXTT0=
EXTT1=
EXTT2=
EXTT3=
EXTT4=
EXTT5=
EXTT6=
EXTT7=
EXTT8=
EXTT9=
EXTT10=
EXTT11=
PLAYORDER=
